<?xml version="1.0" encoding="UTF-8"?>
<svg version="1.1" xmlns="http://www.w3.org/2000/svg" width="400" height="200">
<path d="M0 0 C1.07507813 -0.00128906 2.15015625 -0.00257812 3.2578125 -0.00390625 C4.38960938 -0.00003906 5.52140625 0.00382812 6.6875 0.0078125 C7.81929688 0.00394531 8.95109375 0.00007813 10.1171875 -0.00390625 C11.19226563 -0.00261719 12.26734375 -0.00132813 13.375 0 C14.36886719 0.00112793 15.36273438 0.00225586 16.38671875 0.00341797 C18.6875 0.1328125 18.6875 0.1328125 19.6875 1.1328125 C19.75976502 2.98568752 19.7713122 4.84115128 19.75 6.6953125 C19.74097656 7.70722656 19.73195313 8.71914062 19.72265625 9.76171875 C19.71105469 10.54417969 19.69945312 11.32664062 19.6875 12.1328125 C20.68652344 12.12121094 21.68554688 12.10960938 22.71484375 12.09765625 C24.00519531 12.08863281 25.29554688 12.07960938 26.625 12.0703125 C27.91277344 12.05871094 29.20054687 12.04710938 30.52734375 12.03515625 C33.6875 12.1328125 33.6875 12.1328125 34.6875 13.1328125 C34.92403523 15.65877509 35.10923692 18.16388457 35.25 20.6953125 C35.29318359 21.40623047 35.33636719 22.11714844 35.38085938 22.84960938 C35.48721777 24.61043162 35.58788846 26.3715957 35.6875 28.1328125 C36.13222656 27.19824219 36.57695312 26.26367188 37.03515625 25.30078125 C38.84026384 21.83992486 40.80101803 19.73768648 43.6875 17.1328125 C44.265 16.5965625 44.8425 16.0603125 45.4375 15.5078125 C53.73651824 10.43619024 63.1318261 9.90529147 72.56640625 11.671875 C79.07801793 13.43806476 83.53410902 15.79743944 87 21.7578125 C89.1731038 26.49270533 89.43056688 31.00821331 88.6875 36.1328125 C87.1875 39.7578125 87.1875 39.7578125 85.6875 42.1328125 C87.0075 42.4628125 88.3275 42.7928125 89.6875 43.1328125 C89.71637512 46.77862937 89.73425585 50.42441713 89.75 54.0703125 C89.75837891 55.11123047 89.76675781 56.15214844 89.77539062 57.22460938 C89.77861328 58.21396484 89.78183594 59.20332031 89.78515625 60.22265625 C89.79039307 61.13909912 89.79562988 62.05554199 89.80102539 62.99975586 C89.6875 65.1328125 89.6875 65.1328125 88.6875 66.1328125 C84.45352898 66.40193656 80.2131847 66.40432879 75.97167969 66.42797852 C73.85542578 66.44496789 71.74082869 66.48879256 69.625 66.53320312 C60.10452363 66.64200576 51.87249964 65.55270588 43.75 60.1953125 C39.86382146 56.30913396 37.75893233 53.31139334 35.6875 48.1328125 C35.3575 54.0728125 35.0275 60.0128125 34.6875 66.1328125 C11.1752451 66.91222426 11.1752451 66.91222426 0.75 60.2578125 C-1.3125 58.1328125 -1.3125 58.1328125 -4.3125 52.1328125 C-4.6425 56.7528125 -4.9725 61.3728125 -5.3125 66.1328125 C-9.29171094 66.15963864 -13.27074341 66.17956643 -17.25 66.1953125 C-18.95446289 66.20788086 -18.95446289 66.20788086 -20.69335938 66.22070312 C-21.77294922 66.22392578 -22.85253906 66.22714844 -23.96484375 66.23046875 C-25.46519165 66.23832397 -25.46519165 66.23832397 -26.99584961 66.24633789 C-29.3125 66.1328125 -29.3125 66.1328125 -30.3125 65.1328125 C-30.40025605 62.98722423 -30.41945219 60.83876829 -30.41015625 58.69140625 C-30.40693359 57.38623047 -30.40371094 56.08105469 -30.40039062 54.73632812 C-30.39203401 53.3476556 -30.38356905 51.95898373 -30.375 50.5703125 C-30.36998666 49.17773594 -30.36542347 47.78515769 -30.36132812 46.39257812 C-30.34949434 42.9726138 -30.3330088 39.55273406 -30.3125 36.1328125 C-33.2825 36.1328125 -36.2525 36.1328125 -39.3125 36.1328125 C-39.3125 46.0328125 -39.3125 55.9328125 -39.3125 66.1328125 C-47.5625 66.1328125 -55.8125 66.1328125 -64.3125 66.1328125 C-64.38178318 61.45491507 -64.44138762 56.77883388 -64.47729492 52.10083008 C-64.49228013 50.51320324 -64.51267546 48.92561707 -64.53881836 47.33813477 C-64.85499825 27.62958838 -64.85499825 27.62958838 -59.296875 20.57421875 C-58.55953125 19.95417969 -57.8221875 19.33414063 -57.0625 18.6953125 C-56.33546875 18.05722656 -55.6084375 17.41914062 -54.859375 16.76171875 C-42.33411624 8.75093209 -20.64543107 12.00282219 -6.3125 12.1328125 C-6.32410156 11.35035156 -6.33570313 10.56789063 -6.34765625 9.76171875 C-6.35667969 8.74980469 -6.36570313 7.73789063 -6.375 6.6953125 C-6.38660156 5.68597656 -6.39820313 4.67664063 -6.41015625 3.63671875 C-6.23285219 -0.90935739 -4.00482558 0.00454504 0 0 Z M60.6875 34.1328125 C58.40021266 35.97165131 58.40021266 35.97165131 58.5625 38.7578125 C58.60375 39.5415625 58.645 40.3253125 58.6875 41.1328125 C61.08469432 41.81239853 61.08469432 41.81239853 63.6875 42.1328125 C64.3475 41.4728125 65.0075 40.8128125 65.6875 40.1328125 C65.36708603 37.53000682 65.36708603 37.53000682 64.6875 35.1328125 C62.79570797 34.4513302 62.79570797 34.4513302 60.6875 34.1328125 Z M19.6875 35.1328125 C19.6875 37.7728125 19.6875 40.4128125 19.6875 43.1328125 C24.6375 43.1328125 29.5875 43.1328125 34.6875 43.1328125 C34.6875 40.4928125 34.6875 37.8528125 34.6875 35.1328125 C29.7375 35.1328125 24.7875 35.1328125 19.6875 35.1328125 Z " fill="#1358B3" transform="translate(126.3125,65.8671875)"/>
<path d="M0 0 C7.32785209 4.70481413 12.19209463 9.87194786 14.64453125 18.33203125 C16.40908424 26.74251747 13.98043242 34.16729135 9.9375 41.51171875 C6.00880762 47.31783935 1.22452463 50.62897443 -5.6328125 52.13671875 C-9.06688188 52.63621975 -12.47957729 53.03892783 -15.9375 53.32421875 C-16.4325 58.27421875 -16.4325 58.27421875 -16.9375 63.32421875 C-20.74977875 63.51796239 -24.56216786 63.70451261 -28.375 63.88671875 C-29.46361328 63.94279297 -30.55222656 63.99886719 -31.67382812 64.05664062 C-32.70830078 64.10498047 -33.74277344 64.15332031 -34.80859375 64.203125 C-36.24609985 64.27382202 -36.24609985 64.27382202 -37.71264648 64.34594727 C-39.9375 64.32421875 -39.9375 64.32421875 -40.9375 63.32421875 C-41.0959265 61.25337155 -41.18874422 59.17743846 -41.25390625 57.1015625 C-41.29580078 55.84150391 -41.33769531 54.58144531 -41.38085938 53.28320312 C-41.42067596 51.94271139 -41.46038814 50.60221655 -41.5 49.26171875 C-41.54318042 47.91730352 -41.58679456 46.57290215 -41.63085938 45.22851562 C-41.73735358 41.92719535 -41.8393646 38.62579639 -41.9375 35.32421875 C-42.18927002 35.86328857 -42.44104004 36.4023584 -42.70043945 36.95776367 C-46.04670534 43.92029527 -49.71309357 48.29991163 -57.0625 51.19921875 C-65.85978207 53.72130644 -75.67840947 53.39366668 -83.9375 49.32421875 C-87 47.26171875 -87 47.26171875 -88.9375 45.32421875 C-88.9375 44.66421875 -88.9375 44.00421875 -88.9375 43.32421875 C-89.9275 42.99421875 -90.9175 42.66421875 -91.9375 42.32421875 C-93.0703125 40.46875 -93.0703125 40.46875 -94.0625 38.13671875 C-94.39507812 37.38003906 -94.72765625 36.62335938 -95.0703125 35.84375 C-97.49400193 28.80194962 -97.12097273 21.48648247 -97.125 14.13671875 C-97.13724609 12.94884766 -97.14949219 11.76097656 -97.16210938 10.53710938 C-97.16404297 9.40080078 -97.16597656 8.26449219 -97.16796875 7.09375 C-97.17207764 6.05839111 -97.17618652 5.02303223 -97.18041992 3.95629883 C-96.9375 1.32421875 -96.9375 1.32421875 -94.9375 -1.67578125 C-92.72265625 -2.03222656 -92.72265625 -2.03222656 -90 -2.00390625 C-89.02289063 -1.99875 -88.04578125 -1.99359375 -87.0390625 -1.98828125 C-86.01554688 -1.96765625 -84.99203125 -1.94703125 -83.9375 -1.92578125 C-82.91398438 -1.920625 -81.89046875 -1.91546875 -80.8359375 -1.91015625 C-73.24604111 -1.8300518 -73.24604111 -1.8300518 -70.9375 -0.67578125 C-70.6075 8.56421875 -70.2775 17.80421875 -69.9375 27.32421875 C-68.9475 27.32421875 -67.9575 27.32421875 -66.9375 27.32421875 C-66.91768066 26.51678223 -66.89786133 25.7093457 -66.87744141 24.87744141 C-66.78244101 21.23436 -66.67266088 17.59187189 -66.5625 13.94921875 C-66.51609375 12.04269531 -66.51609375 12.04269531 -66.46875 10.09765625 C-66.43007812 8.8859375 -66.39140625 7.67421875 -66.3515625 6.42578125 C-66.3201416 5.30510254 -66.2887207 4.18442383 -66.25634766 3.02978516 C-65.9375 0.32421875 -65.9375 0.32421875 -63.9375 -1.67578125 C-61.70678711 -1.91870117 -61.70678711 -1.91870117 -58.96484375 -1.90625 C-57.98322266 -1.90431641 -57.00160156 -1.90238281 -55.99023438 -1.90039062 C-54.96220703 -1.88814453 -53.93417969 -1.87589844 -52.875 -1.86328125 C-51.84310547 -1.86263672 -50.81121094 -1.86199219 -49.74804688 -1.86132812 C-42.07765997 -1.81594122 -42.07765997 -1.81594122 -40.9375 -0.67578125 C-40.70222227 1.67409137 -40.52363583 4.02977914 -40.375 6.38671875 C-40.29121094 7.67707031 -40.20742188 8.96742187 -40.12109375 10.296875 C-40.06050781 11.29589844 -39.99992187 12.29492188 -39.9375 13.32421875 C-39.5971875 12.81632812 -39.256875 12.3084375 -38.90625 11.78515625 C-29.89283939 -1.01580456 -15.00011385 -7.85851553 0 0 Z M-14.9375 21.32421875 C-17.22478734 23.16305756 -17.22478734 23.16305756 -17.0625 25.94921875 C-17.02125 26.73296875 -16.98 27.51671875 -16.9375 28.32421875 C-14.52104218 28.49109323 -14.52104218 28.49109323 -11.9375 28.32421875 C-11.2775 27.66421875 -10.6175 27.00421875 -9.9375 26.32421875 C-10.2560177 24.21601078 -10.2560177 24.21601078 -10.9375 22.32421875 C-12.82929203 21.64273645 -12.82929203 21.64273645 -14.9375 21.32421875 Z " fill="#FF9758" transform="translate(312.9375,80.67578125)"/>
<path d="M0 0 C1.07507813 -0.00128906 2.15015625 -0.00257812 3.2578125 -0.00390625 C4.38960938 -0.00003906 5.52140625 0.00382812 6.6875 0.0078125 C7.81929688 0.00394531 8.95109375 0.00007813 10.1171875 -0.00390625 C11.19226563 -0.00261719 12.26734375 -0.00132813 13.375 0 C14.36886719 0.00112793 15.36273438 0.00225586 16.38671875 0.00341797 C18.6875 0.1328125 18.6875 0.1328125 19.6875 1.1328125 C19.75976502 2.98568752 19.7713122 4.84115128 19.75 6.6953125 C19.74097656 7.70722656 19.73195313 8.71914062 19.72265625 9.76171875 C19.71105469 10.54417969 19.69945312 11.32664062 19.6875 12.1328125 C20.6775 12.4628125 21.6675 12.7928125 22.6875 13.1328125 C21.0375 13.1328125 19.3875 13.1328125 17.6875 13.1328125 C17.6875 9.1728125 17.6875 5.2128125 17.6875 1.1328125 C10.4275 1.1328125 3.1675 1.1328125 -4.3125 1.1328125 C-4.19153951 6.16425403 -4.06843401 11.19555739 -3.94018555 16.22680664 C-3.89731426 17.93250596 -3.8556142 19.63823518 -3.81518555 21.34399414 C-3.65857079 38.84859459 -3.65857079 38.84859459 -1.3125 56.1328125 C-2.3025 54.8128125 -3.2925 53.4928125 -4.3125 52.1328125 C-4.6425 56.7528125 -4.9725 61.3728125 -5.3125 66.1328125 C-9.29171094 66.15963864 -13.27074341 66.17956643 -17.25 66.1953125 C-18.95446289 66.20788086 -18.95446289 66.20788086 -20.69335938 66.22070312 C-21.77294922 66.22392578 -22.85253906 66.22714844 -23.96484375 66.23046875 C-25.46519165 66.23832397 -25.46519165 66.23832397 -26.99584961 66.24633789 C-29.3125 66.1328125 -29.3125 66.1328125 -30.3125 65.1328125 C-30.40025605 62.98722423 -30.41945219 60.83876829 -30.41015625 58.69140625 C-30.40693359 57.38623047 -30.40371094 56.08105469 -30.40039062 54.73632812 C-30.39203401 53.3476556 -30.38356905 51.95898373 -30.375 50.5703125 C-30.36998666 49.17773594 -30.36542347 47.78515769 -30.36132812 46.39257812 C-30.34949434 42.9726138 -30.3330088 39.55273406 -30.3125 36.1328125 C-33.2825 36.1328125 -36.2525 36.1328125 -39.3125 36.1328125 C-39.3125 46.0328125 -39.3125 55.9328125 -39.3125 66.1328125 C-47.5625 66.1328125 -55.8125 66.1328125 -64.3125 66.1328125 C-64.38178318 61.45491507 -64.44138762 56.77883388 -64.47729492 52.10083008 C-64.49228013 50.51320324 -64.51267546 48.92561707 -64.53881836 47.33813477 C-64.85499825 27.62958838 -64.85499825 27.62958838 -59.296875 20.57421875 C-58.55953125 19.95417969 -57.8221875 19.33414063 -57.0625 18.6953125 C-56.33546875 18.05722656 -55.6084375 17.41914062 -54.859375 16.76171875 C-42.33411624 8.75093209 -20.64543107 12.00282219 -6.3125 12.1328125 C-6.32410156 11.35035156 -6.33570313 10.56789063 -6.34765625 9.76171875 C-6.35667969 8.74980469 -6.36570313 7.73789063 -6.375 6.6953125 C-6.38660156 5.68597656 -6.39820313 4.67664063 -6.41015625 3.63671875 C-6.23285219 -0.90935739 -4.00482558 0.00454504 0 0 Z " fill="#064EAF" transform="translate(126.3125,65.8671875)"/>
<path d="M0 0 C6.9847572 4.92674838 11.2333603 10.57956778 13 19 C13.62742993 28.25459151 10.98717452 36.80634195 5 44 C-0.08571896 49.08571896 -4.39739276 50.36052504 -11.5625 50.375 C-14.7490625 50.189375 -14.7490625 50.189375 -18 50 C-18 42.74 -18 35.48 -18 28 C-16.68 28 -15.36 28 -14 28 C-13.67 26.02 -13.34 24.04 -13 22 C-15.49064888 21.31292445 -17.37886292 21 -20 21 C-20 34.2 -20 47.4 -20 61 C-27.26 61 -34.52 61 -42 61 C-42.06940789 55.39852648 -42.12897625 49.79858471 -42.16479492 44.19702148 C-42.17974885 42.29723007 -42.20011943 40.39747236 -42.22631836 38.49780273 C-42.58972587 11.44175699 -42.58972587 11.44175699 -36.94897461 4.4621582 C-26.96085285 -5.29540698 -12.06808928 -7.74826187 0 0 Z " fill="#FF9452" transform="translate(315,82)"/>
<path d="M0 0 C7.26 0 14.52 0 22 0 C22 3.96 22 7.92 22 12 C23.340625 11.979375 24.68125 11.95875 26.0625 11.9375 C30.25154649 11.87305313 33.71222065 12.38746009 38 13 C38 19.93 38 26.86 38 34 C33.38 34 28.76 34 24 34 C24 36.64 24 39.28 24 42 C28.62 41.67 33.24 41.34 38 41 C38 48.59 38 56.18 38 64 C34.16589729 64.10851234 30.33490317 64.18757134 26.5 64.25 C25.42234375 64.28351563 24.3446875 64.31703125 23.234375 64.3515625 C15.73576549 64.44300896 10.08671897 63.62265041 4.35742188 58.54394531 C-3.5321278 49.57029205 -0.12034384 28.96923093 -0.0625 17.6875 C-0.05747105 15.96419402 -0.05291063 14.24088661 -0.04882812 12.51757812 C-0.03880268 8.34498654 -0.0192089 4.17259919 0 0 Z " fill="#054DAE" transform="translate(122,67)"/>
<path d="M0 0 C0 7.26 0 14.52 0 22 C-3.63 22 -7.26 22 -11 22 C-11 31.57 -11 41.14 -11 51 C-18.26 51 -25.52 51 -33 51 C-33.09257866 46.7670978 -33.17197032 42.53780123 -33.21972656 38.3046875 C-33.23966189 36.86934413 -33.26682074 35.43408003 -33.30175781 33.99902344 C-33.5515092 23.46539147 -33.04889118 13.79254568 -25.6875 5.5 C-20.10587658 -0.35246168 -13.35167619 -0.29624073 -5.671875 -0.94921875 C-3 -1 -3 -1 0 0 Z " fill="#044DAE" transform="translate(96,79)"/>
<path d="M0 0 C1.35726196 0.00616333 1.35726196 0.00616333 2.74194336 0.01245117 C3.72356445 0.01438477 4.70518555 0.01631836 5.71655273 0.01831055 C6.74458008 0.03055664 7.77260742 0.04280273 8.83178711 0.05541992 C9.86368164 0.05606445 10.89557617 0.05670898 11.95874023 0.05737305 C19.62912714 0.10275995 19.62912714 0.10275995 20.76928711 1.24291992 C21.00456484 3.59279254 21.18315128 5.94848031 21.33178711 8.30541992 C21.4574707 10.24094727 21.4574707 10.24094727 21.58569336 12.21557617 C21.6462793 13.21459961 21.70686523 14.21362305 21.76928711 15.24291992 C22.42928711 14.91291992 23.08928711 14.58291992 23.76928711 14.24291992 C23.61081299 15.52481201 23.45233887 16.8067041 23.2890625 18.12744141 C22.73627985 23.11807204 22.55149007 28.07309374 22.45288086 33.09057617 C22.43209976 33.98787949 22.41131866 34.8851828 22.38990784 35.80967712 C22.32516485 38.6415228 22.26588193 41.47345133 22.20678711 44.30541992 C22.16353009 46.23967286 22.11991367 48.1739178 22.07592773 50.1081543 C21.96889396 54.81965968 21.8692641 59.53123852 21.76928711 64.24291992 C29.02928711 64.24291992 36.28928711 64.24291992 43.76928711 64.24291992 C43.76928711 51.04291992 43.76928711 37.84291992 43.76928711 24.24291992 C44.42928711 24.57291992 45.08928711 24.90291992 45.76928711 25.24291992 C45.27428711 27.71791992 45.27428711 27.71791992 44.76928711 30.24291992 C46.41928711 30.24291992 48.06928711 30.24291992 49.76928711 30.24291992 C48.44928711 30.57291992 47.12928711 30.90291992 45.76928711 31.24291992 C45.76928711 38.50291992 45.76928711 45.76291992 45.76928711 53.24291992 C48.73928711 53.24291992 51.70928711 53.24291992 54.76928711 53.24291992 C54.76928711 53.57291992 54.76928711 53.90291992 54.76928711 54.24291992 C50.31428711 54.73791992 50.31428711 54.73791992 45.76928711 55.24291992 C45.27428711 60.19291992 45.27428711 60.19291992 44.76928711 65.24291992 C40.95700836 65.43666356 37.14461925 65.62321378 33.33178711 65.80541992 C32.24317383 65.86149414 31.15456055 65.91756836 30.03295898 65.9753418 C28.99848633 66.02368164 27.96401367 66.07202148 26.89819336 66.12182617 C25.46068726 66.19252319 25.46068726 66.19252319 23.99414062 66.26464844 C21.76928711 66.24291992 21.76928711 66.24291992 20.76928711 65.24291992 C20.61086061 63.17207272 20.51804288 61.09613963 20.45288086 59.02026367 C20.41098633 57.76020508 20.3690918 56.50014648 20.32592773 55.2019043 C20.28611115 53.86141256 20.24639897 52.52091772 20.20678711 51.18041992 C20.16360669 49.8360047 20.11999255 48.49160333 20.07592773 47.1472168 C19.96943353 43.84589652 19.86742251 40.54449756 19.76928711 37.24291992 C19.10928711 38.56291992 18.44928711 39.88291992 17.76928711 41.24291992 C16.43637655 38.57709881 17.03359258 37.36698271 17.66772461 34.47338867 C18.95689675 27.83794381 19.21252572 21.29952486 19.39428711 14.55541992 C19.43295898 13.3649707 19.47163086 12.17452148 19.51147461 10.94799805 C19.60469446 8.04653016 19.68802739 5.1447474 19.76928711 2.24291992 C12.50928711 2.24291992 5.24928711 2.24291992 -2.23071289 2.24291992 C-2.23071289 10.82291992 -2.23071289 19.40291992 -2.23071289 28.24291992 C-2.89071289 28.57291992 -3.55071289 28.90291992 -4.23071289 29.24291992 C-4.28854329 24.78464066 -4.32425144 20.32645712 -4.35571289 15.86791992 C-4.3724707 14.5969043 -4.38922852 13.32588867 -4.40649414 12.01635742 C-4.41293945 10.80463867 -4.41938477 9.59291992 -4.42602539 8.34448242 C-4.44173584 6.66346436 -4.44173584 6.66346436 -4.45776367 4.94848633 C-4.17136356 1.53570564 -3.49080982 0.38014182 0 0 Z " fill="#FFC8A6" transform="translate(251.230712890625,78.757080078125)"/>
<path d="M0 0 C0.33 0 0.66 0 1 0 C1 17.16 1 34.32 1 52 C0.67 52 0.34 52 0 52 C0 42.43 0 32.86 0 23 C-2.97 23 -5.94 23 -9 23 C-9 32.9 -9 42.8 -9 53 C-17.25 53 -25.5 53 -34 53 C-34.06928318 48.32210257 -34.12888762 43.64602138 -34.16479492 38.96801758 C-34.17978013 37.38039074 -34.20017546 35.79280457 -34.22631836 34.20532227 C-34.54330645 14.44639805 -34.54330645 14.44639805 -29.69726562 8.36523438 C-28.3125 6.9375 -28.3125 6.9375 -26 5 C-25.34 5.33 -24.68 5.66 -24 6 C-24.763125 6.639375 -25.52625 7.27875 -26.3125 7.9375 C-33.51489628 15.32249225 -32.53502216 26.45200796 -32.6875 36.0625 C-32.72073621 37.51500355 -32.75523151 38.96747886 -32.79101562 40.41992188 C-32.87752366 43.94663325 -32.93818755 47.47242756 -33 51 C-25.74 51 -18.48 51 -11 51 C-11 41.43 -11 31.86 -11 22 C-7.37 22 -3.74 22 0 22 C0 14.74 0 7.48 0 0 Z " fill="#ADC4E5" transform="translate(96,79)"/>
<path d="M0 0 C1.07507813 -0.00128906 2.15015625 -0.00257812 3.2578125 -0.00390625 C4.38960937 -0.00003906 5.52140625 0.00382812 6.6875 0.0078125 C7.81929687 0.00394531 8.95109375 0.00007813 10.1171875 -0.00390625 C11.19226563 -0.00261719 12.26734375 -0.00132813 13.375 0 C14.36886719 0.00112793 15.36273438 0.00225586 16.38671875 0.00341797 C18.6875 0.1328125 18.6875 0.1328125 19.6875 1.1328125 C19.75976502 2.98568752 19.7713122 4.84115128 19.75 6.6953125 C19.74097656 7.70722656 19.73195312 8.71914062 19.72265625 9.76171875 C19.71105469 10.54417969 19.69945312 11.32664062 19.6875 12.1328125 C20.6775 12.4628125 21.6675 12.7928125 22.6875 13.1328125 C21.0375 13.1328125 19.3875 13.1328125 17.6875 13.1328125 C17.6875 9.1728125 17.6875 5.2128125 17.6875 1.1328125 C10.4275 1.1328125 3.1675 1.1328125 -4.3125 1.1328125 C-4.19153951 6.16425403 -4.06843401 11.19555739 -3.94018555 16.22680664 C-3.89731426 17.93250596 -3.8556142 19.63823518 -3.81518555 21.34399414 C-3.65857079 38.84859459 -3.65857079 38.84859459 -1.3125 56.1328125 C-2.3025 54.8128125 -3.2925 53.4928125 -4.3125 52.1328125 C-4.6425 56.7528125 -4.9725 61.3728125 -5.3125 66.1328125 C-5.6425 66.1328125 -5.9725 66.1328125 -6.3125 66.1328125 C-6.3125 48.6428125 -6.3125 31.1528125 -6.3125 13.1328125 C-13.5725 13.1328125 -20.8325 13.1328125 -28.3125 13.1328125 C-28.3125 12.8028125 -28.3125 12.4728125 -28.3125 12.1328125 C-21.0525 12.1328125 -13.7925 12.1328125 -6.3125 12.1328125 C-6.3125 8.5028125 -6.3125 4.8728125 -6.3125 1.1328125 C-4.59682208 -0.58286542 -2.33877265 0.00265425 0 0 Z " fill="#AEC5E4" transform="translate(126.3125,65.8671875)"/>
<path d="M0 0 C0.99 0.33 1.98 0.66 3 1 C3 2.98 3 4.96 3 7 C9.27 6.67 15.54 6.34 22 6 C22 6.66 22 7.32 22 8 C23.32 8.33 24.64 8.66 26 9 C26.02887512 12.64581687 26.04675585 16.29160463 26.0625 19.9375 C26.07087891 20.97841797 26.07925781 22.01933594 26.08789062 23.09179688 C26.09111328 24.08115234 26.09433594 25.07050781 26.09765625 26.08984375 C26.10289307 27.00628662 26.10812988 27.92272949 26.11352539 28.86694336 C26 31 26 31 25 32 C22.70848583 32.08790975 20.41427476 32.10694038 18.12109375 32.09765625 C17.09110008 32.09553383 17.09110008 32.09553383 16.04029846 32.09336853 C13.83932199 32.08775479 11.63844591 32.07520007 9.4375 32.0625 C7.94856917 32.05748676 6.45963676 32.05292355 4.97070312 32.04882812 C1.31376925 32.03778093 -2.34310558 32.02050713 -6 32 C-6 31.67 -6 31.34 -6 31 C3.9 31 13.8 31 24 31 C24 23.74 24 16.48 24 9 C16.41 9 8.82 9 1 9 C1 8.01 1 7.02 1 6 C0.68578929 3.99690671 0.3548954 1.99628664 0 0 Z " fill="#98B5DD" transform="translate(190,100)"/>
<path d="M0 0 C0.99 0.33 1.98 0.66 3 1 C3 2.98 3 4.96 3 7 C12.405 6.505 12.405 6.505 22 6 C21.67 6.99 21.34 7.98 21 9 C14.4 9 7.8 9 1 9 C1 8.01 1 7.02 1 6 C0.68578929 3.99690671 0.3548954 1.99628664 0 0 Z " fill="#6490CE" transform="translate(190,100)"/>
<path d="M0 0 C0.66 0.33 1.32 0.66 2 1 C-5.11389522 9.6309795 -5.11389522 9.6309795 -10 12 C-8.62968895 6.34746692 -4.32310587 3.4886459 0 0 Z " fill="#FFC29F" transform="translate(285,81)"/>
<path d="M0 0 C0.33 0 0.66 0 1 0 C0.76270312 2.13567196 0.52447837 4.27124544 0.28125 6.40625 C0.09621418 8.11269141 -0.07096615 9.82117968 -0.21875 11.53125 C-0.2909375 12.3253125 -0.363125 13.119375 -0.4375 13.9375 C-0.49808594 14.66839844 -0.55867188 15.39929688 -0.62109375 16.15234375 C-1 18 -1 18 -3 20 C-2.88581333 17.41577541 -2.75907638 14.83320487 -2.625 12.25 C-2.5940625 11.52039063 -2.563125 10.79078125 -2.53125 10.0390625 C-2.3251506 6.26057344 -2.08487157 3.22053332 0 0 Z " fill="#FFD4BC" transform="translate(274,93)"/>
<path d="M0 0 C0.99 0.33 1.98 0.66 3 1 C3 3.31 3 5.62 3 8 C4.65 8 6.3 8 8 8 C8 8.33 8 8.66 8 9 C5.69 9 3.38 9 1 9 C1 8.01 1 7.02 1 6 C0.68578929 3.99690671 0.3548954 1.99628664 0 0 Z " fill="#92B3DC" transform="translate(190,100)"/>
</svg>
